<svg width="40" height="40" viewBox="0 0 40 40" fill="none" xmlns="http://www.w3.org/2000/svg">
<g clip-path="url(#clip0_2296_1434)">
<path d="M20.1425 -0.0136719C11.9438 -0.0136719 5 6.97008 5 15.2413C5 23.9038 13.0488 32.7626 18.4625 38.9888C18.4838 39.0138 19.3588 39.9851 20.4363 39.9851H20.5312C21.61 39.9851 22.4788 39.0138 22.5 38.9888C27.58 33.1488 35 23.5176 35 15.2413C35 6.96883 29.5837 -0.0136719 20.1425 -0.0136719ZM20.6437 37.3113C20.6 37.3551 20.5363 37.4038 20.48 37.4451C20.4225 37.4051 20.36 37.3551 20.3137 37.3113L19.66 36.5588C14.5275 30.6713 7.49875 22.6076 7.49875 15.2401C7.49875 8.32508 13.2888 2.48383 20.1413 2.48383C28.6775 2.48383 32.4988 8.89008 32.4988 15.2401C32.4988 20.8326 28.51 28.2601 20.6437 37.3113ZM20.0437 7.55508C15.9025 7.55508 12.5437 10.9126 12.5437 15.0551C12.5437 19.1976 15.9025 22.5551 20.0437 22.5551C24.185 22.5551 27.5438 19.1963 27.5438 15.0551C27.5438 10.9138 24.1862 7.55508 20.0437 7.55508ZM20.0437 20.0551C17.2863 20.0551 14.9862 17.7576 14.9862 15.0001C14.9862 12.2426 17.2288 10.0001 19.9862 10.0001C22.745 10.0001 24.9862 12.2426 24.9862 15.0001C24.9875 17.7576 22.8025 20.0551 20.0437 20.0551Z" fill="white"/>
</g>
<defs>
<clipPath id="clip0_2296_1434">
<rect width="40" height="40" fill="white"/>
</clipPath>
</defs>
</svg>
