<svg width="40" height="40" viewBox="0 0 40 40" fill="none" xmlns="http://www.w3.org/2000/svg">
<path d="M9.52999 21.8313C11.4025 27.9888 5.24374 30.4025 0.95874 34.6888C1.94374 37.99 1.91374 38.0188 5.24499 38.975C9.53124 34.6888 11.6737 28.2613 18.1025 30.4038L9.53124 21.8325L9.52999 21.8313ZM35.3812 30.3213C35.3812 33.2825 32.9512 35.685 29.9512 35.685C26.9512 35.685 24.52 33.285 24.52 30.3225C24.52 30.3213 24.52 30.3213 24.52 30.32C24.52 27.3588 26.95 24.9563 29.95 24.9563C32.95 24.9563 35.3812 27.3563 35.3812 30.3188C35.3812 30.32 35.3812 30.32 35.3812 30.3213ZM24.015 30.025C24.015 30.0238 24.015 30.0238 24.015 30.0225C24.015 26.9225 26.5587 24.4088 29.6975 24.4088C30.975 24.4088 32.155 24.825 33.1037 25.5275C38.8037 20.6288 42.1875 13.1325 34.4937 5.43876C19.4937 -9.56124 5.24499 17.5463 9.52999 21.8313L18.1012 30.4013C19.1062 31.4063 21.3662 31.3913 24.0425 30.5875C24.0237 30.4025 24.0137 30.2138 24.0137 30.0238L24.015 30.025Z" fill="white"/>
</svg>
